<mxfile host="Electron" agent="Mozilla/5.0 (Windows NT 10.0; Win64; x64) AppleWebKit/537.36 (KHTML, like Gecko) draw.io/27.0.2 Chrome/134.0.6998.205 Electron/35.3.0 Safari/537.36" version="27.0.2">
  <diagram name="Page-1" id="wsc8bIlqDhHY4QQGcY_k">
    <mxGraphModel dx="1722" dy="1016" grid="1" gridSize="10" guides="1" tooltips="1" connect="1" arrows="1" fold="1" page="1" pageScale="1" pageWidth="850" pageHeight="1100" math="0" shadow="0">
      <root>
        <mxCell id="0" />
        <mxCell id="1" parent="0" />
        <mxCell id="jn4AKjn8fhmB5A6dIXcM-2" value="Web Portal" style="shape=umlLifeline;perimeter=lifelinePerimeter;whiteSpace=wrap;html=1;container=1;dropTarget=0;collapsible=0;recursiveResize=0;outlineConnect=0;portConstraint=eastwest;newEdgeStyle={&quot;curved&quot;:0,&quot;rounded&quot;:0};" vertex="1" parent="1">
          <mxGeometry x="180" y="80" width="100" height="720" as="geometry" />
        </mxCell>
        <mxCell id="jn4AKjn8fhmB5A6dIXcM-4" value="" style="shape=umlLifeline;perimeter=lifelinePerimeter;whiteSpace=wrap;html=1;container=1;dropTarget=0;collapsible=0;recursiveResize=0;outlineConnect=0;portConstraint=eastwest;newEdgeStyle={&quot;curved&quot;:0,&quot;rounded&quot;:0};participant=umlActor;" vertex="1" parent="1">
          <mxGeometry x="70" y="80" width="30" height="720" as="geometry" />
        </mxCell>
        <mxCell id="jn4AKjn8fhmB5A6dIXcM-5" value="LSM Controller" style="shape=umlLifeline;perimeter=lifelinePerimeter;whiteSpace=wrap;html=1;container=1;dropTarget=0;collapsible=0;recursiveResize=0;outlineConnect=0;portConstraint=eastwest;newEdgeStyle={&quot;curved&quot;:0,&quot;rounded&quot;:0};" vertex="1" parent="1">
          <mxGeometry x="320" y="80" width="100" height="720" as="geometry" />
        </mxCell>
        <mxCell id="jn4AKjn8fhmB5A6dIXcM-6" value="Book Search" style="shape=umlLifeline;perimeter=lifelinePerimeter;whiteSpace=wrap;html=1;container=1;dropTarget=0;collapsible=0;recursiveResize=0;outlineConnect=0;portConstraint=eastwest;newEdgeStyle={&quot;curved&quot;:0,&quot;rounded&quot;:0};" vertex="1" parent="1">
          <mxGeometry x="460" y="80" width="100" height="720" as="geometry" />
        </mxCell>
        <mxCell id="jn4AKjn8fhmB5A6dIXcM-7" value="Egibility" style="shape=umlLifeline;perimeter=lifelinePerimeter;whiteSpace=wrap;html=1;container=1;dropTarget=0;collapsible=0;recursiveResize=0;outlineConnect=0;portConstraint=eastwest;newEdgeStyle={&quot;curved&quot;:0,&quot;rounded&quot;:0};" vertex="1" parent="1">
          <mxGeometry x="600" y="80" width="100" height="720" as="geometry" />
        </mxCell>
        <mxCell id="jn4AKjn8fhmB5A6dIXcM-8" value="Inventory&lt;span style=&quot;color: rgba(0, 0, 0, 0); font-family: monospace; font-size: 0px; text-align: start; text-wrap-mode: nowrap;&quot;&gt;%3CmxGraphModel%3E%3Croot%3E%3CmxCell%20id%3D%220%22%2F%3E%3CmxCell%20id%3D%221%22%20parent%3D%220%22%2F%3E%3CmxCell%20id%3D%222%22%20value%3D%22Web%20Portal%22%20style%3D%22shape%3DumlLifeline%3Bperimeter%3DlifelinePerimeter%3BwhiteSpace%3Dwrap%3Bhtml%3D1%3Bcontainer%3D1%3BdropTarget%3D0%3Bcollapsible%3D0%3BrecursiveResize%3D0%3BoutlineConnect%3D0%3BportConstraint%3Deastwest%3BnewEdgeStyle%3D%7B%26quot%3Bcurved%26quot%3B%3A0%2C%26quot%3Brounded%26quot%3B%3A0%7D%3B%22%20vertex%3D%221%22%20parent%3D%221%22%3E%3CmxGeometry%20x%3D%22180%22%20y%3D%2280%22%20width%3D%22100%22%20height%3D%22720%22%20as%3D%22geometry%22%2F%3E%3C%2FmxCell%3E%3C%2Froot%3E%3C%2FmxGraphModel%3E&lt;/span&gt;" style="shape=umlLifeline;perimeter=lifelinePerimeter;whiteSpace=wrap;html=1;container=1;dropTarget=0;collapsible=0;recursiveResize=0;outlineConnect=0;portConstraint=eastwest;newEdgeStyle={&quot;curved&quot;:0,&quot;rounded&quot;:0};" vertex="1" parent="1">
          <mxGeometry x="740" y="80" width="100" height="720" as="geometry" />
        </mxCell>
        <mxCell id="jn4AKjn8fhmB5A6dIXcM-9" value="Borrow Record" style="shape=umlLifeline;perimeter=lifelinePerimeter;whiteSpace=wrap;html=1;container=1;dropTarget=0;collapsible=0;recursiveResize=0;outlineConnect=0;portConstraint=eastwest;newEdgeStyle={&quot;curved&quot;:0,&quot;rounded&quot;:0};" vertex="1" parent="1">
          <mxGeometry x="890" y="80" width="100" height="720" as="geometry" />
        </mxCell>
        <mxCell id="jn4AKjn8fhmB5A6dIXcM-11" value="" style="endArrow=classic;html=1;rounded=0;entryX=0.005;entryY=1.027;entryDx=0;entryDy=0;entryPerimeter=0;" edge="1" parent="1" source="jn4AKjn8fhmB5A6dIXcM-2" target="jn4AKjn8fhmB5A6dIXcM-12">
          <mxGeometry width="50" height="50" relative="1" as="geometry">
            <mxPoint x="220" y="180" as="sourcePoint" />
            <mxPoint x="90" y="180" as="targetPoint" />
          </mxGeometry>
        </mxCell>
        <mxCell id="jn4AKjn8fhmB5A6dIXcM-12" value="Welcome Message" style="text;html=1;align=center;verticalAlign=middle;resizable=0;points=[];autosize=1;strokeColor=none;fillColor=none;" vertex="1" parent="1">
          <mxGeometry x="85" y="148" width="130" height="30" as="geometry" />
        </mxCell>
        <mxCell id="jn4AKjn8fhmB5A6dIXcM-13" value="" style="endArrow=classic;html=1;rounded=0;" edge="1" parent="1" target="jn4AKjn8fhmB5A6dIXcM-2">
          <mxGeometry width="50" height="50" relative="1" as="geometry">
            <mxPoint x="85.00222222222229" y="240" as="sourcePoint" />
            <mxPoint x="219.78" y="240" as="targetPoint" />
          </mxGeometry>
        </mxCell>
        <mxCell id="jn4AKjn8fhmB5A6dIXcM-14" value="Login Request" style="text;html=1;align=center;verticalAlign=middle;resizable=0;points=[];autosize=1;strokeColor=none;fillColor=none;" vertex="1" parent="1">
          <mxGeometry x="100" y="218" width="100" height="30" as="geometry" />
        </mxCell>
        <mxCell id="jn4AKjn8fhmB5A6dIXcM-15" value="" style="endArrow=classic;html=1;rounded=0;" edge="1" parent="1">
          <mxGeometry width="50" height="50" relative="1" as="geometry">
            <mxPoint x="230.0022222222223" y="262" as="sourcePoint" />
            <mxPoint x="364.78" y="262" as="targetPoint" />
          </mxGeometry>
        </mxCell>
        <mxCell id="jn4AKjn8fhmB5A6dIXcM-16" value="Authentication" style="text;html=1;align=center;verticalAlign=middle;resizable=0;points=[];autosize=1;strokeColor=none;fillColor=none;" vertex="1" parent="1">
          <mxGeometry x="245" y="240" width="100" height="30" as="geometry" />
        </mxCell>
        <mxCell id="jn4AKjn8fhmB5A6dIXcM-17" value="" style="endArrow=classic;html=1;rounded=0;dashed=1;" edge="1" parent="1">
          <mxGeometry width="50" height="50" relative="1" as="geometry">
            <mxPoint x="362.5" y="322" as="sourcePoint" />
            <mxPoint x="232.5" y="322" as="targetPoint" />
          </mxGeometry>
        </mxCell>
        <mxCell id="jn4AKjn8fhmB5A6dIXcM-18" value="Sucess" style="text;html=1;align=center;verticalAlign=middle;resizable=0;points=[];autosize=1;strokeColor=none;fillColor=none;" vertex="1" parent="1">
          <mxGeometry x="262.5" y="290" width="60" height="30" as="geometry" />
        </mxCell>
        <mxCell id="jn4AKjn8fhmB5A6dIXcM-19" value="" style="endArrow=classic;html=1;rounded=0;" edge="1" parent="1" target="jn4AKjn8fhmB5A6dIXcM-2">
          <mxGeometry width="50" height="50" relative="1" as="geometry">
            <mxPoint x="85.00222222222229" y="392" as="sourcePoint" />
            <mxPoint x="219.78" y="392" as="targetPoint" />
          </mxGeometry>
        </mxCell>
        <mxCell id="jn4AKjn8fhmB5A6dIXcM-20" value="Search Book" style="text;html=1;align=center;verticalAlign=middle;resizable=0;points=[];autosize=1;strokeColor=none;fillColor=none;" vertex="1" parent="1">
          <mxGeometry x="105" y="370" width="90" height="30" as="geometry" />
        </mxCell>
        <mxCell id="jn4AKjn8fhmB5A6dIXcM-21" value="" style="endArrow=classic;html=1;rounded=0;" edge="1" parent="1">
          <mxGeometry width="50" height="50" relative="1" as="geometry">
            <mxPoint x="230.2999999999999" y="430" as="sourcePoint" />
            <mxPoint x="509.7" y="430" as="targetPoint" />
          </mxGeometry>
        </mxCell>
        <mxCell id="jn4AKjn8fhmB5A6dIXcM-22" value="Book Query" style="text;html=1;align=center;verticalAlign=middle;resizable=0;points=[];autosize=1;strokeColor=none;fillColor=none;" vertex="1" parent="1">
          <mxGeometry x="247.61" y="400" width="90" height="30" as="geometry" />
        </mxCell>
        <mxCell id="jn4AKjn8fhmB5A6dIXcM-23" value="" style="endArrow=classic;html=1;rounded=0;dashed=1;" edge="1" parent="1" target="jn4AKjn8fhmB5A6dIXcM-4">
          <mxGeometry width="50" height="50" relative="1" as="geometry">
            <mxPoint x="510" y="482" as="sourcePoint" />
            <mxPoint x="380" y="482" as="targetPoint" />
          </mxGeometry>
        </mxCell>
        <mxCell id="jn4AKjn8fhmB5A6dIXcM-24" value="return book" style="text;html=1;align=center;verticalAlign=middle;resizable=0;points=[];autosize=1;strokeColor=none;fillColor=none;" vertex="1" parent="1">
          <mxGeometry x="400" y="450" width="80" height="30" as="geometry" />
        </mxCell>
        <mxCell id="jn4AKjn8fhmB5A6dIXcM-25" value="" style="endArrow=classic;html=1;rounded=0;" edge="1" parent="1" target="jn4AKjn8fhmB5A6dIXcM-5">
          <mxGeometry width="50" height="50" relative="1" as="geometry">
            <mxPoint x="85.00222222222229" y="542" as="sourcePoint" />
            <mxPoint x="230" y="542" as="targetPoint" />
          </mxGeometry>
        </mxCell>
        <mxCell id="jn4AKjn8fhmB5A6dIXcM-26" value="Borrow Request" style="text;html=1;align=center;verticalAlign=middle;resizable=0;points=[];autosize=1;strokeColor=none;fillColor=none;" vertex="1" parent="1">
          <mxGeometry x="95" y="520" width="110" height="30" as="geometry" />
        </mxCell>
        <mxCell id="jn4AKjn8fhmB5A6dIXcM-27" value="" style="endArrow=classic;html=1;rounded=0;" edge="1" parent="1" target="jn4AKjn8fhmB5A6dIXcM-7">
          <mxGeometry width="50" height="50" relative="1" as="geometry">
            <mxPoint x="370" y="580" as="sourcePoint" />
            <mxPoint x="509.70000000000005" y="580" as="targetPoint" />
          </mxGeometry>
        </mxCell>
        <mxCell id="jn4AKjn8fhmB5A6dIXcM-28" value="Cheak Egibility" style="text;html=1;align=center;verticalAlign=middle;resizable=0;points=[];autosize=1;strokeColor=none;fillColor=none;" vertex="1" parent="1">
          <mxGeometry x="390" y="550" width="100" height="30" as="geometry" />
        </mxCell>
        <mxCell id="jn4AKjn8fhmB5A6dIXcM-29" value="" style="endArrow=classic;html=1;rounded=0;dashed=1;" edge="1" parent="1" target="jn4AKjn8fhmB5A6dIXcM-5">
          <mxGeometry width="50" height="50" relative="1" as="geometry">
            <mxPoint x="650" y="632" as="sourcePoint" />
            <mxPoint x="230" y="632" as="targetPoint" />
          </mxGeometry>
        </mxCell>
        <mxCell id="jn4AKjn8fhmB5A6dIXcM-30" value="return egibility result" style="text;html=1;align=center;verticalAlign=middle;resizable=0;points=[];autosize=1;strokeColor=none;fillColor=none;" vertex="1" parent="1">
          <mxGeometry x="520" y="600" width="130" height="30" as="geometry" />
        </mxCell>
        <mxCell id="jn4AKjn8fhmB5A6dIXcM-31" value="" style="endArrow=classic;html=1;rounded=0;" edge="1" parent="1" target="jn4AKjn8fhmB5A6dIXcM-8">
          <mxGeometry width="50" height="50" relative="1" as="geometry">
            <mxPoint x="370" y="680" as="sourcePoint" />
            <mxPoint x="650" y="680" as="targetPoint" />
          </mxGeometry>
        </mxCell>
        <mxCell id="jn4AKjn8fhmB5A6dIXcM-32" value="Update inventory" style="text;html=1;align=center;verticalAlign=middle;resizable=0;points=[];autosize=1;strokeColor=none;fillColor=none;" vertex="1" parent="1">
          <mxGeometry x="385" y="650" width="110" height="30" as="geometry" />
        </mxCell>
        <mxCell id="jn4AKjn8fhmB5A6dIXcM-33" value="" style="endArrow=classic;html=1;rounded=0;" edge="1" parent="1" target="jn4AKjn8fhmB5A6dIXcM-9">
          <mxGeometry width="50" height="50" relative="1" as="geometry">
            <mxPoint x="790.0022222222223" y="712" as="sourcePoint" />
            <mxPoint x="935" y="712" as="targetPoint" />
          </mxGeometry>
        </mxCell>
        <mxCell id="jn4AKjn8fhmB5A6dIXcM-34" value="mark book as borrowed" style="text;html=1;align=center;verticalAlign=middle;resizable=0;points=[];autosize=1;strokeColor=none;fillColor=none;" vertex="1" parent="1">
          <mxGeometry x="790" y="690" width="150" height="30" as="geometry" />
        </mxCell>
        <mxCell id="jn4AKjn8fhmB5A6dIXcM-35" value="" style="endArrow=classic;html=1;rounded=0;dashed=1;" edge="1" parent="1">
          <mxGeometry width="50" height="50" relative="1" as="geometry">
            <mxPoint x="940" y="752" as="sourcePoint" />
            <mxPoint x="370" y="752" as="targetPoint" />
          </mxGeometry>
        </mxCell>
        <mxCell id="jn4AKjn8fhmB5A6dIXcM-36" value="book borrowed" style="text;html=1;align=center;verticalAlign=middle;resizable=0;points=[];autosize=1;strokeColor=none;fillColor=none;" vertex="1" parent="1">
          <mxGeometry x="825" y="720" width="100" height="30" as="geometry" />
        </mxCell>
        <mxCell id="jn4AKjn8fhmB5A6dIXcM-37" value="" style="endArrow=classic;html=1;rounded=0;dashed=1;" edge="1" parent="1">
          <mxGeometry width="50" height="50" relative="1" as="geometry">
            <mxPoint x="370" y="782" as="sourcePoint" />
            <mxPoint x="82.5" y="782" as="targetPoint" />
          </mxGeometry>
        </mxCell>
        <mxCell id="jn4AKjn8fhmB5A6dIXcM-38" value="Confirmation message" style="text;html=1;align=center;verticalAlign=middle;resizable=0;points=[];autosize=1;strokeColor=none;fillColor=none;" vertex="1" parent="1">
          <mxGeometry x="225" y="750" width="140" height="30" as="geometry" />
        </mxCell>
      </root>
    </mxGraphModel>
  </diagram>
</mxfile>
